<svg id="layout-plan" viewBox="0 0 49.85 43.85"><g class="front" transform="translate(10, 10)"><rect x="3.05" y="0.05" width="2.9" height="2.9" fill="#cf5c36"></rect><rect x="0.8000000000000005" y="0.05" width="2.9" height="5.9" fill="#e3b505"></rect><rect x="5.3" y="0.05" width="2.9" height="5.9" fill="#e3b505"></rect><rect x="-0.847114317029974" y="0.05" width="10.694228634059948" height="2.9" fill="#cf5c36"></rect><rect x="-1.45" y="0.05" width="2.9" height="5.9" fill="#e3b505"></rect><rect x="7.55" y="0.05" width="2.9" height="5.9" fill="#e3b505"></rect><rect x="-0.847114317029974" y="0.05" width="10.694228634059948" height="2.9" fill="#cf5c36"></rect><rect x="0.8000000000000005" y="0.05" width="2.9" height="5.9" fill="#e3b505"></rect><rect x="5.3" y="0.05" width="2.9" height="5.9" fill="#e3b505"></rect></g><g class="side" transform="translate(30.5, 10)"><rect x="-0.7999999999999999" y="0.05" width="1.5999999999999999" height="2.9" fill="#cf5c36"></rect><rect x="0.9" y="0.05" width="1.5999999999999999" height="5.9" fill="#e3b505"></rect><rect x="0.9" y="0.05" width="1.5999999999999999" height="5.9" fill="#e3b505"></rect><rect x="2.5999999999999996" y="0.05" width="1.5999999999999999" height="2.9" fill="#cf5c36"></rect><rect x="4.3" y="0.05" width="1.5999999999999999" height="5.9" fill="#e3b505"></rect><rect x="4.3" y="0.05" width="1.5999999999999999" height="5.9" fill="#e3b505"></rect><rect x="6" y="0.05" width="1.5999999999999999" height="2.9" fill="#cf5c36"></rect><rect x="7.7" y="0.05" width="1.5999999999999999" height="5.9" fill="#e3b505"></rect><rect x="7.7" y="0.05" width="1.5999999999999999" height="5.9" fill="#e3b505"></rect></g><g class="top" transform="translate(10, 24.5)"><rect x="3.05" y="-0.7999999999999999" width="2.9" height="1.5999999999999999" fill="#cf5c36"></rect><rect x="0.8000000000000005" y="0.9" width="2.9" height="1.5999999999999999" fill="#e3b505"></rect><rect x="5.3" y="0.9" width="2.9" height="1.5999999999999999" fill="#e3b505"></rect><rect x="-0.847114317029974" y="2.5999999999999996" width="10.694228634059948" height="1.5999999999999999" fill="#cf5c36"></rect><rect x="-1.45" y="4.3" width="2.9" height="1.5999999999999999" fill="#e3b505"></rect><rect x="7.55" y="4.3" width="2.9" height="1.5999999999999999" fill="#e3b505"></rect><rect x="-0.847114317029974" y="6" width="10.694228634059948" height="1.5999999999999999" fill="#cf5c36"></rect><rect x="0.8000000000000005" y="7.7" width="2.9" height="1.5999999999999999" fill="#e3b505"></rect><rect x="5.3" y="7.7" width="2.9" height="1.5999999999999999" fill="#e3b505"></rect></g></svg>
